<svg id="eye-slash" xmlns="http://www.w3.org/2000/svg" width="22.061" height="19.979" viewBox="0 0 22.061 19.979">
  <path id="Path_593" data-name="Path 593" d="M3.561,2.475A.768.768,0,0,0,2.475,3.561L20.917,22A.768.768,0,1,0,22,20.917L3.561,2.475ZM23.177,12.805a11.525,11.525,0,0,1-2.7,4.416l-3.175-3.175a5.379,5.379,0,0,0-6.875-6.875L7.894,4.634a11.539,11.539,0,0,1,15.283,7.031A1.809,1.809,0,0,1,23.177,12.805Z" transform="translate(-1.209 -2.269)" fill="#545454"/>
  <path id="Path_594" data-name="Path 594" d="M15.934,12.092a3.95,3.95,0,0,1-.038.543L11.548,8.288a3.842,3.842,0,0,1,4.386,3.8Zm-3.3,3.8L8.288,11.548A3.842,3.842,0,0,0,12.635,15.9Z" transform="translate(-1.062 -2.122)" fill="#545454"/>
  <path id="Path_595" data-name="Path 595" d="M6.885,12.119A5.358,5.358,0,0,1,7.2,10.312L4.021,7.136a11.526,11.526,0,0,0-2.695,4.416,1.812,1.812,0,0,0,0,1.141,11.539,11.539,0,0,0,15.283,7.031l-2.538-2.538a5.379,5.379,0,0,1-7.186-5.067Z" transform="translate(-1.234 -2.149)" fill="#545454"/>
</svg>
