<svg id="Group_3131" data-name="Group 3131" xmlns="http://www.w3.org/2000/svg" width="24.644" height="24.644" viewBox="0 0 24.644 24.644">
  <path id="Path_4119" data-name="Path 4119" d="M17.322,5A12.322,12.322,0,1,0,29.644,17.322,12.322,12.322,0,0,0,17.322,5Z" transform="translate(-5 -5)" fill="#039be5"/>
  <path id="Path_4120" data-name="Path 4120" d="M23.017,23.33h3.189l.5-3.239h-3.69V18.32c0-1.346.44-2.539,1.7-2.539h2.023V12.954A17.182,17.182,0,0,0,24.21,12.8c-2.966,0-4.7,1.566-4.7,5.134V20.09H16.457V23.33h3.049v8.9a11.173,11.173,0,0,0,3.511.027Z" transform="translate(-9.027 -7.742)" fill="#fff"/>
</svg>
