<svg xmlns="http://www.w3.org/2000/svg" width="24.644" height="24.644" viewBox="0 0 24.644 24.644">
  <g id="Group_3133" data-name="Group 3133" transform="translate(-4 -4)">
    <path id="Path_4121" data-name="Path 4121" d="M28.4,13.909h-.993v-.051H16.322v4.929h6.964A7.4,7.4,0,1,1,21.226,10.8l3.485-3.485a12.309,12.309,0,1,0,3.932,9.006A12.406,12.406,0,0,0,28.4,13.909Z" fill="#ffc107"/>
    <path id="Path_4122" data-name="Path 4122" d="M6.306,10.587l4.048,2.969A7.378,7.378,0,0,1,22.112,10.8L25.6,7.316A12.3,12.3,0,0,0,6.306,10.587Z" transform="translate(-0.885)" fill="#ff3d00"/>
    <path id="Path_4123" data-name="Path 4123" d="M17.164,37.878a12.264,12.264,0,0,0,8.261-3.2l-3.814-3.227a7.374,7.374,0,0,1-11.4-3.4L6.2,31.15A12.312,12.312,0,0,0,17.164,37.878Z" transform="translate(-0.843 -9.235)" fill="#4caf50"/>
    <path id="Path_4124" data-name="Path 4124" d="M36.082,20.051H35.09V20H24v4.929h6.964a7.418,7.418,0,0,1-2.518,3.432h0l3.814,3.227a11.919,11.919,0,0,0,4.061-9.122A12.406,12.406,0,0,0,36.082,20.051Z" transform="translate(-7.678 -6.143)" fill="#1976d2"/>
  </g>
</svg>
